<?xml version="1.0" encoding="UTF-8" standalone="no"?>
<!-- Uploaded to: SVG Repo, www.svgrepo.com, Generator: SVG Repo Mixer Tools -->

<svg
   width="800px"
   height="800px"
   viewBox="0 0 36 36"
   aria-hidden="true"
   role="img"
   class="iconify iconify--twemoji"
   preserveAspectRatio="xMidYMid meet"
   version="1.1"
   id="svg4"
   sodipodi:docname="nazar.svg"
   inkscape:version="1.4.2 (ebf0e940d0, 2025-05-08)"
   xmlns:inkscape="http://www.inkscape.org/namespaces/inkscape"
   xmlns:sodipodi="http://sodipodi.sourceforge.net/DTD/sodipodi-0.dtd"
   xmlns="http://www.w3.org/2000/svg"
   xmlns:svg="http://www.w3.org/2000/svg">
  <defs
     id="defs4" />
  <sodipodi:namedview
     id="namedview4"
     pagecolor="#ffffff"
     bordercolor="#000000"
     borderopacity="0.25"
     inkscape:showpageshadow="2"
     inkscape:pageopacity="0.0"
     inkscape:pagecheckerboard="0"
     inkscape:deskcolor="#d1d1d1"
     inkscape:zoom="1.00375"
     inkscape:cx="400"
     inkscape:cy="400"
     inkscape:window-width="1920"
     inkscape:window-height="1004"
     inkscape:window-x="0"
     inkscape:window-y="0"
     inkscape:window-maximized="1"
     inkscape:current-layer="svg4" />
  <path
     fill="#1213BD"
     d="M36 18.302c0 4.981-2.46 9.198-5.655 12.462s-7.323 5.152-12.199 5.152s-9.764-1.112-12.959-4.376S0 23.283 0 18.302s2.574-9.38 5.769-12.644S13.271 0 18.146 0s9.394 2.178 12.589 5.442C33.931 8.706 36 13.322 36 18.302z"
     id="path1" />
  <path
     fill="#FFF"
     d="M29.994 18c0 3.314-1.092 6.559-3.264 8.73s-5.417 2.798-8.73 2.798s-6.089-1.096-8.261-3.267S6.312 21.314 6.312 18s.9-6.445 3.071-8.617S14.686 5.608 18 5.608s6.203 1.846 8.375 4.017s3.619 5.061 3.619 8.375z"
     id="path2" />
  <path
     fill="#88C9F9"
     d="M25.871 18c0 4.418-3.453 8.112-7.871 8.112S10.261 22.418 10.261 18s3.321-7.785 7.739-7.785s7.871 3.367 7.871 7.785z"
     id="path3" />
  <path
     fill="#292f33"
     d="m 23.075,17.825 c 0,2.665 -2.235,4.908 -4.9,4.908 -2.665,0 -4.732,-2.243 -4.732,-4.908 0,-2.665 2.067,-4.835 4.732,-4.835 2.665,0 4.9,2.17 4.9,4.835 z"
     id="path4" />
</svg>
